<svg xmlns="http://www.w3.org/2000/svg" viewBox="0 0 85.09 89.3"><defs><style>.cls-1{fill:#f9cf58;}.cls-2{fill:#d69a21;}.cls-3{fill:#f9d375;}.cls-4{font-size:57.2px;fill:#384c87;font-family:Sugar&Vinegar, Sugar & Vinegar;}.cls-5{fill:none;stroke:#d69a21;stroke-miterlimit:10;}</style></defs><title>Asset 1</title><g id="Layer_2" data-name="Layer 2"><g id="Layer_1-2" data-name="Layer 1"><path class="cls-1" d="M42.55,0A42.54,42.54,0,1,0,85.09,42.54,42.55,42.55,0,0,0,42.55,0Zm0,75.09A32.55,32.55,0,1,1,75.1,42.54,32.55,32.55,0,0,1,42.55,75.09Z"/><circle class="cls-2" cx="42.55" cy="42.54" r="34.5"/><circle class="cls-3" cx="42.55" cy="42.54" r="32.55"/><text class="cls-4" transform="translate(26.55 56.51)">e</text><line class="cls-5" x1="42.55" x2="42.55" y2="4.67"/><line class="cls-5" x1="47.02" y1="0.24" x2="46.53" y2="4.88"/><line class="cls-5" x1="51.44" y1="0.94" x2="50.47" y2="5.51"/><line class="cls-5" x1="55.77" y1="2.11" x2="54.32" y2="6.55"/><line class="cls-5" x1="59.95" y1="3.72" x2="58.03" y2="7.98"/><line class="cls-5" x1="63.93" y1="5.77" x2="61.58" y2="9.8"/><line class="cls-5" x1="67.68" y1="8.22" x2="64.91" y2="11.99"/><line class="cls-5" x1="71.14" y1="11.06" x2="68" y2="14.51"/><line class="cls-5" x1="74.29" y1="14.24" x2="70.81" y2="17.34"/><line class="cls-5" x1="77.09" y1="17.74" x2="73.3" y2="20.46"/><line class="cls-5" x1="79.51" y1="21.51" x2="75.44" y2="23.81"/><line class="cls-5" x1="81.51" y1="25.51" x2="77.23" y2="27.38"/><line class="cls-5" x1="83.08" y1="29.71" x2="78.63" y2="31.11"/><line class="cls-5" x1="84.2" y1="34.04" x2="79.63" y2="34.97"/><line class="cls-5" x1="84.86" y1="38.47" x2="80.21" y2="38.91"/><line class="cls-5" x1="85.05" y1="42.95" x2="80.38" y2="42.9"/><line class="cls-5" x1="84.77" y1="47.41" x2="80.13" y2="46.87"/><line class="cls-5" x1="84.02" y1="51.83" x2="79.46" y2="50.8"/><line class="cls-5" x1="82.81" y1="56.14" x2="78.38" y2="54.64"/><line class="cls-5" x1="81.15" y1="60.3" x2="76.91" y2="58.35"/><line class="cls-5" x1="79.06" y1="64.26" x2="75.05" y2="61.87"/><line class="cls-5" x1="76.57" y1="67.98" x2="72.83" y2="65.18"/><line class="cls-5" x1="73.7" y1="71.42" x2="70.28" y2="68.24"/><line class="cls-5" x1="70.48" y1="74.54" x2="67.41" y2="71.02"/><line class="cls-5" x1="66.96" y1="77.3" x2="64.28" y2="73.48"/><line class="cls-5" x1="63.16" y1="79.67" x2="60.9" y2="75.59"/><line class="cls-5" x1="59.14" y1="81.64" x2="57.31" y2="77.34"/><line class="cls-5" x1="54.93" y1="83.16" x2="53.57" y2="78.7"/><line class="cls-5" x1="50.58" y1="84.24" x2="49.7" y2="79.66"/><line class="cls-5" x1="46.14" y1="84.85" x2="45.75" y2="80.2"/><line class="cls-5" x1="41.67" y1="85" x2="41.76" y2="80.33"/><line class="cls-5" x1="37.2" y1="84.67" x2="37.79" y2="80.04"/><line class="cls-5" x1="32.79" y1="83.87" x2="33.87" y2="79.33"/><line class="cls-5" x1="28.5" y1="82.62" x2="30.04" y2="78.21"/><line class="cls-5" x1="24.35" y1="80.91" x2="26.35" y2="76.69"/><line class="cls-5" x1="20.41" y1="78.79" x2="22.84" y2="74.8"/><line class="cls-5" x1="16.72" y1="76.26" x2="19.56" y2="72.55"/><line class="cls-5" x1="13.31" y1="73.35" x2="16.52" y2="69.96"/><line class="cls-5" x1="10.23" y1="70.1" x2="13.78" y2="67.07"/><line class="cls-5" x1="7.5" y1="66.55" x2="11.35" y2="63.91"/><line class="cls-5" x1="5.17" y1="62.73" x2="9.27" y2="60.5"/><line class="cls-5" x1="3.25" y1="58.68" x2="7.56" y2="56.9"/><line class="cls-5" x1="1.76" y1="54.46" x2="6.24" y2="53.14"/><line class="cls-5" x1="0.73" y1="50.1" x2="5.33" y2="49.26"/><line class="cls-5" x1="0.16" y1="45.66" x2="4.82" y2="45.31"/><line class="cls-5" x1="0.07" y1="41.18" x2="4.74" y2="41.32"/><line class="cls-5" x1="0.44" y1="36.72" x2="5.07" y2="37.35"/><line class="cls-5" x1="1.29" y1="32.32" x2="5.82" y2="33.44"/><line class="cls-5" x1="2.59" y1="28.03" x2="6.98" y2="29.62"/><line class="cls-5" x1="4.33" y1="23.91" x2="8.53" y2="25.95"/><line class="cls-5" x1="6.5" y1="19.99" x2="10.46" y2="22.46"/><line class="cls-5" x1="9.07" y1="16.32" x2="12.75" y2="19.2"/><line class="cls-5" x1="12.01" y1="12.94" x2="15.36" y2="16.19"/><line class="cls-5" x1="15.29" y1="9.89" x2="18.28" y2="13.48"/><line class="cls-5" x1="18.87" y1="7.21" x2="21.47" y2="11.09"/><line class="cls-5" x1="22.72" y1="4.91" x2="24.9" y2="9.04"/><line class="cls-5" x1="26.78" y1="3.03" x2="28.51" y2="7.37"/><line class="cls-5" x1="31.02" y1="1.59" x2="32.29" y2="6.09"/><line class="cls-5" x1="35.39" y1="0.61" x2="36.18" y2="5.21"/><line class="cls-5" x1="39.84" y1="0.09" x2="40.14" y2="4.75"/></g></g></svg>